<svg xmlns="http://www.w3.org/2000/svg" width="341.336" height="427.221" viewBox="0 0 341.336 427.221">
  <g id="potion" transform="matrix(0.985, 0.174, -0.174, 0.985, 60.277, -21.856)">
    <circle id="Эллипс_109" data-name="Эллипс 109" cx="18" cy="18" r="18" transform="translate(79.941 252.417)" fill="#ff9898"/>
    <circle id="Эллипс_110" data-name="Эллипс 110" cx="19.5" cy="19.5" r="19.5" transform="translate(126.941 306.417)" fill="#ff9898"/>
    <path id="Контур_1011" data-name="Контур 1011" d="M19,0A19,19,0,1,1,0,19,19,19,0,0,1,19,0Z" transform="translate(186.941 268.417)" fill="#ff9898"/>
    <path id="Контур_1004" data-name="Контур 1004" d="M142.454,54.241c-7.927,9.486-23.91,22.741-51.979,22.741-22.741,0-40.608-11.37-58.476-22.741C49.868,42.87,67.735,31.5,90.476,31.5A70.418,70.418,0,0,1,142.454,54.241Z" transform="translate(120.941 167.668)" fill="#ff9898"/>
    <path id="Контур_1005" data-name="Контур 1005" d="M241.406,54.241a116.953,116.953,0,1,1-220.909,0A70.418,70.418,0,0,1,72.476,31.5c22.741,0,40.608,11.37,58.476,22.741s35.735,22.741,58.476,22.741C217.5,76.981,233.479,63.727,241.406,54.241Zm-45.481,64.973a12.995,12.995,0,1,0-12.995,12.995A13.033,13.033,0,0,0,195.925,119.214ZM143.946,158.2a19.492,19.492,0,1,0-19.492,19.492A19.466,19.466,0,0,0,143.946,158.2ZM91.968,102.97a16.243,16.243,0,1,0-16.243,16.243A16.249,16.249,0,0,0,91.968,102.97Z" transform="translate(21.989 167.668)" fill="#cf3d3d"/>
    <path id="Контур_1006" data-name="Контур 1006" d="M92.193,1V33.487H27.22L26.96,1Z" transform="translate(93.234)" fill="#f18700"/>
    <path id="Контур_1007" data-name="Контур 1007" d="M138.952,6a13.033,13.033,0,0,1,12.995,12.995,12.7,12.7,0,0,1-3.833,9.161,12.7,12.7,0,0,1-9.161,3.833H34.995A13.033,13.033,0,0,1,22,18.995a12.7,12.7,0,0,1,3.833-9.161A12.7,12.7,0,0,1,34.995,6H138.952Z" transform="translate(65.968 27.487)" fill="#b3b3b3"/>
    <path id="Контур_1008" data-name="Контур 1008" d="M67.984,10l-6.5,25.989H35.5L29,10Z" transform="translate(104.449 49.476)" fill="#d07400"/>
    <path id="Контур_1009" data-name="Контур 1009" d="M191.925,73.869a142.941,142.941,0,1,1-77.968,0V10h19.492l6.5,25.989h25.989L172.433,10h19.492Zm77.968,137.548a116.613,116.613,0,0,0-6.5-38.984,70.418,70.418,0,0,0-51.979-22.741c-22.741,0-40.608,11.37-58.476,22.741-17.868-11.37-35.735-22.741-58.476-22.741a70.418,70.418,0,0,0-51.979,22.741,117.031,117.031,0,1,0,227.406,38.984Z" transform="translate(0 49.476)" fill="#ccc"/>
    <path id="Контур_1010" data-name="Контур 1010" d="M27.556,65.481a6.5,6.5,0,0,1-3.6-11.91A121.874,121.874,0,0,1,58.536,37.653l7.251-2.066a9.387,9.387,0,0,0,6.92-9.09,6.5,6.5,0,0,1,12.995,0A22.551,22.551,0,0,1,69.347,48.081l-7.27,2.073A109.281,109.281,0,0,0,31.136,64.39a6.379,6.379,0,0,1-3.58,1.092Z" transform="translate(60.743 104.449)" fill="#e6e6e6"/>
    <circle id="Эллипс_112" data-name="Эллипс 112" cx="6.5" cy="6.5" r="6.5" transform="translate(133.941 105.417)" fill="#e6e6e6"/>
    <g id="Сгруппировать_175" data-name="Сгруппировать 175" transform="translate(61.979 228.406)">
      <path id="Контур_1013" data-name="Контур 1013" d="M6,0a6.265,6.265,0,0,1,6,6.5A6.265,6.265,0,0,1,6,13,6.265,6.265,0,0,1,0,6.5,6.265,6.265,0,0,1,6,0Z" transform="translate(84.962 32.011)" fill="#ff9898"/>
      <path id="Контур_1014" data-name="Контур 1014" d="M6.5,0A6.5,6.5,0,1,1,0,6.5,6.5,6.5,0,0,1,6.5,0Z" transform="translate(174.962 32.011)" fill="#ff9898"/>
      <path id="Контур_1012" data-name="Контур 1012" d="M10,0A9.76,9.76,0,0,1,20,9.5,9.76,9.76,0,0,1,10,19,9.76,9.76,0,0,1,0,9.5,9.76,9.76,0,0,1,10,0Z" transform="translate(122.962 91.011)" fill="#ff9898"/>
      <circle id="Эллипс_116" data-name="Эллипс 116" cx="6.5" cy="6.5" r="6.5" transform="translate(-0.038 0.011)" fill="#ff9898"/>
      <ellipse id="Эллипс_117" data-name="Эллипс 117" cx="10" cy="9.5" rx="10" ry="9.5" transform="translate(25.962 78.011)" fill="#ff9898"/>
    </g>
  </g>
</svg>
