<svg version="1" xmlns="http://www.w3.org/2000/svg" width="1998.667" height="1998.667" viewBox="0 0 1499.000000 1499.000000"><path d="M429 64.1C276.5 74.3 159.5 140.2 90.2 254.7 49.8 321.6 31 397.4 33.3 484.5c2.1 78.3 13.9 149.8 46.9 283.5 20.6 83.9 20.8 84.8 20.8 109.1 0 43.2-12.2 127.2-30.5 209.4l-5.5 25 7.7 11.5c36.5 53.8 90.5 117.2 140.1 164.4 102.3 97.2 202.6 151.1 297.2 159.6 39.3 3.5 103-2.7 148.5-14.5 32.6-8.5 58.8-19.9 81-35.4 10.5-7.3 26.7-23.1 33.8-32.9 15.6-21.7 23.6-48.2 22.3-73.8-.6-13.4-2.6-22.4-7.8-36.3-2.2-5.9-4.8-13.2-5.8-16.3l-1.8-5.7 11.7-10.6c31.2-28.2 57.2-62.5 75.1-99 9.7-19.6 14.7-33.3 18.1-49.5 11.3-54.1 25.5-97.3 44.9-136.5 16.6-33.6 23.8-53.8 29.4-81.5 4.1-20.2 5-30.2 5.1-53 0-30-2.2-46.2-11-79-7.2-26.9-9.3-44-7.4-60.5 1.5-13.7 4.7-23.8 12.7-40.3 22.2-45.5 23.7-104.6 4-168.6-2.1-7-3.7-13-3.5-13.2.2-.2 55.8-.7 123.5-1l123.2-.7 99.2-58.9c54.6-32.3 99.4-59.2 99.6-59.6.1-.5-49.3-23.7-109.8-51.6l-110.1-50.7-62.2 1.1c-84.3 1.4-282.9 2.5-294.9 1.6l-9.7-.8-9-11.3c-39.1-48.9-99.6-89.1-178.3-118.4-32-11.9-68-21.2-90.9-23.5-34.8-3.5-80-4.5-110.9-2.5zm-83.6 176.1c2 2.8 2 8.4.1 18.5-2.4 12.7-2.4 13 3.8 14.7 2.8.9 13.8 3.1 24.2 5.1 22.2 4.1 28.3 5.6 32.8 8.2l3.2 1.9-.3 19c-.3 15.2-.1 20.4 1.3 26.4 3.4 15.1 11.1 28.2 30.6 52.1 9.7 11.8 12.9 16.5 12.9 19.1 0 4.7-8.8 9.9-36 20.8-8.5 3.5-15.8 6.6-16.2 6.9-.4.4 2.6 5.3 6.7 11 7.7 10.7 12.9 20.2 14 25.8.5 2.7.2 3.7-2 5.9-2.6 2.6-2.8 2.6-12.8 2.1-7.7-.4-13.7-1.5-24.2-4.5-7.7-2.2-14.3-3.7-14.7-3.3-.3.3-2.5 5.3-4.8 11.1-5.2 13.4-9.7 22.4-12.1 24.6-1.7 1.5-2.4 1.6-6.2.5-4.8-1.4-18.7-8.7-26-13.6l-4.9-3.3-12.6 7.6c-17.8 10.5-38.8 21.3-40.5 20.6-1.9-.7-11.4-15.4-22.7-34.9-5.1-8.8-9.4-16.1-9.5-16.3-.2-.2-6.1 1.9-13.1 4.6-21.9 8.5-26.4 9.7-28.7 7.9-4.5-3.3-4.2-20.2.8-52.3 1.4-8.5 2.2-16.1 1.8-17-.8-2.2-4.6-3.4-10.9-3.4-3.9 0-5.4-.4-5.4-1.4 0-.8 2-11.6 4.5-24.2 4.3-21.8 4.4-22.8 2.8-24.7-1-1.1-11-6.5-22.3-11.9-27.5-13.4-30.2-15.6-24.7-20.5 5.7-5.3 16.1-8.1 32.7-8.9 15.6-.7 15.5-.7 17.4-5.6 1.7-4.1 3.3-22.3 3.9-42.3l.2-9 3.8-.3c5-.4 18 3.4 38.6 11.3 9.3 3.6 17.1 6.5 17.4 6.5.3 0 3.3-4.6 6.7-10.3 12.9-21.4 20.6-27.9 28.5-24.2 4.2 2 8.7 7 11.6 12.8 3.4 6.6 5.9 9.7 7.9 9.7 1 0 7.3-4 13.9-8.9 13.7-10.3 18.4-13.3 22.6-14.9 4.2-1.5 4.2-1.5 5.9 1zM603 573.1c34.1 4.2 58.3 15.3 80.3 36.8 16 15.6 22.5 27.3 23.5 42.1 2.2 35.5-39 69-94.8 77.1-12.6 1.8-44.1 1.6-58-.4-60-8.8-91.7-37.2-86-77.2 1-7 2.2-10.7 5.4-17 12.7-24.6 30-43 49.8-53 9-4.5 17.9-6.9 30.8-8.4 11-1.2 39.2-1.3 49 0zM916.7 598c5.6 2.5 7.8 6.6 7.7 15 0 8.3-2.7 16.5-11.7 35.5l-7 15 2.1 23c3.4 35.4 2.8 50.6-2.1 54-2.9 2-18 2-28.7-.1-26.3-5-44.7-19.5-51.9-41.1-7-20.7-4.5-43.2 6.7-61.3 18.1-29.2 62.1-49.9 84.9-40zm-74.2 349c7.4 1.5 15.4 5.8 17.6 9.4 1.6 2.5 1.9 4.4 1.6 9.6-.3 5.5-1.6 9.1-8.2 23.5-12.7 27.8-16.4 39.5-18.4 58.8-1.4 12.4-2.2 15.1-5.9 19-14.7 15.6-60.1 9.9-107.1-13.4-29.5-14.6-50.8-32.5-59.7-50.1-1.3-2.6-2.4-5.2-2.4-5.7 0-1.9 11-13.8 18.7-20.2 14.7-12.4 27.6-19.8 43.1-24.8 11.6-3.8 18.8-4.8 43.7-6.1 11.6-.6 23.3-1.2 26-1.4 9.3-.7 46 .3 51 1.4z"/></svg>