<svg xmlns="http://www.w3.org/2000/svg" width="54.871" height="54.861" viewBox="0 0 54.871 54.861">
  <g id="XMLID_711_" transform="translate(0.05 -0.053)">
    <path id="XMLID_712_" d="M0,0H5.738V27.519H0Z" transform="translate(25.544 9.933) rotate(-45)" fill="#cf3d3d"/>
    <path id="XMLID_714_" d="M0,0H15.834V6.463H0Z" transform="translate(19.492 30.807) rotate(-45)" fill="#e98080"/>
    <path id="XMLID_715_" d="M0,0H5.738V21.254H0Z" transform="translate(34.05 5.788) rotate(-45)" fill="#cf3d3d"/>
    <path id="XMLID_717_" d="M0,0H4.963V9.671H0Z" transform="translate(44.474 3.562) rotate(-45)" fill="#e98080"/>
    <path id="XMLID_718_" d="M0,0H5.738V27.519H0Z" transform="translate(5.753 29.719) rotate(-45)" fill="#cf3d3d"/>
    <path id="XMLID_723_" d="M0,0H5.738V21.254H0Z" transform="translate(1.607 38.224) rotate(-45)" fill="#cf3d3d"/>
    <path id="XMLID_724_" d="M0,0H4.932V9.671H0Z" transform="translate(-0.05 48.077) rotate(-45)" fill="#e98080"/>
  </g>
</svg>
