<svg xmlns="http://www.w3.org/2000/svg" width="62.859" height="55" viewBox="0 0 62.859 55">
  <g id="payment" transform="translate(0 -32.008)">
    <g id="Сгруппировать_169" data-name="Сгруппировать 169" transform="translate(0 43.792)">
      <g id="Сгруппировать_168" data-name="Сгруппировать 168">
        <path id="Контур_990" data-name="Контур 990" d="M27.5,131.921v-3.929H3.929A3.935,3.935,0,0,0,0,131.921v7.857H28.33A35.176,35.176,0,0,1,27.5,131.921Z" transform="translate(0 -127.992)" fill="#cf3d3d"/>
      </g>
    </g>
    <g id="Сгруппировать_171" data-name="Сгруппировать 171" transform="translate(0 63.436)">
      <g id="Сгруппировать_170" data-name="Сгруппировать 170">
        <path id="Контур_991" data-name="Контур 991" d="M62.7,287.992c-2.679,4.129-6.765,7.641-12.619,11a5.9,5.9,0,0,1-5.858.008c-5.854-3.371-9.94-6.887-12.623-11.012H0v19.644a3.933,3.933,0,0,0,3.929,3.929h55a3.93,3.93,0,0,0,3.929-3.929V287.992ZM17.679,299.778H9.822a1.964,1.964,0,1,1,0-3.929h7.857a1.964,1.964,0,1,1,0,3.929Z" transform="translate(0 -287.992)" fill="#cf3d3d"/>
      </g>
    </g>
    <g id="Сгруппировать_173" data-name="Сгруппировать 173" transform="translate(31.43 32.008)">
      <g id="Сгруппировать_172" data-name="Сгруппировать 172">
        <path id="Контур_992" data-name="Контур 992" d="M286.239,38.06l-13.751-5.893a1.971,1.971,0,0,0-1.552,0l-13.75,5.893a1.959,1.959,0,0,0-1.186,1.8v7.857c0,10.808,4,17.125,14.737,23.313a1.975,1.975,0,0,0,1.957,0c10.741-6.172,14.737-12.489,14.737-23.313V39.863A1.957,1.957,0,0,0,286.239,38.06Zm-7.1,8.926-7.857,9.822a1.986,1.986,0,0,1-1.536.735h-.083a1.972,1.972,0,0,1-1.552-.872l-3.929-5.893a1.964,1.964,0,0,1,3.269-2.177l2.44,3.658,6.176-7.724a1.965,1.965,0,0,1,3.072,2.452Z" transform="translate(-256 -32.008)" fill="#e98080"/>
      </g>
    </g>
  </g>
</svg>
