<svg xmlns="http://www.w3.org/2000/svg" width="60" height="55" viewBox="0 0 60 55">
  <g id="cloud-computing_2_" data-name="cloud-computing (2)" transform="translate(0 -1)">
    <path id="Контур_993" data-name="Контур 993" d="M23.375,40.986h-6.25A3.129,3.129,0,0,1,14,37.861V27.236H8.375a1.876,1.876,0,0,1-1.36-3.168l11.875-12.5a1.935,1.935,0,0,1,2.72,0l11.875,12.5a1.875,1.875,0,0,1-1.36,3.168H26.5V37.861a3.129,3.129,0,0,1-3.125,3.125Z" transform="translate(9.751 15.014)" fill="#e98080"/>
    <path id="Контур_994" data-name="Контур 994" d="M46.683,10.818a19.047,19.047,0,0,0-35.175,4.755A12.7,12.7,0,0,0,11.28,40.84a6.858,6.858,0,0,1,1.858-5.2l11.878-12.5a7.164,7.164,0,0,1,9.968,0l11.878,12.5a6.859,6.859,0,0,1,1.875,4.8,15.117,15.117,0,0,0-2.053-29.628Z" fill="#cf3d3d"/>
  </g>
</svg>
