<svg xmlns="http://www.w3.org/2000/svg" width="58.905" height="55" viewBox="0 0 58.905 55">
  <g id="coupon_1_" data-name="coupon (1)" transform="translate(0 -16.97)">
    <path id="Контур_1015" data-name="Контур 1015" d="M184.811,99.087A1.725,1.725,0,1,0,186,97.1,1.724,1.724,0,0,0,184.811,99.087Z" transform="translate(-163.517 -70.845)" fill="#e98080"/>
    <path id="Контур_1016" data-name="Контур 1016" d="M58.472,52.346l-3.379-9.837c-5.849-17.028-5.37-15.637-5.405-15.718a8.815,8.815,0,0,0-5.206-4.825c-.334-.115-19.235-4.537-19.781-4.726a5.808,5.808,0,0,0-5.637,1.248l-16.2,14.9A8.908,8.908,0,0,0,0,39.935V66.329A5.632,5.632,0,0,0,5.611,71.97H40.265a5.632,5.632,0,0,0,5.611-5.641V63.778l9.659-4.134A5.606,5.606,0,0,0,58.472,52.346ZM40.265,68.519H5.611a2.177,2.177,0,0,1-2.159-2.189V39.935a5.448,5.448,0,0,1,1.751-4c13.878-12.769,5.3-4.8,16.253-14.906a2.19,2.19,0,0,1,2.142-.5c.7.209-.535-.8,17.076,15.408a5.448,5.448,0,0,1,1.751,4V66.329a2.177,2.177,0,0,1-2.159,2.189ZM54.171,56.474l-8.295,3.55V39.935a8.908,8.908,0,0,0-2.865-6.542l-12.063-11.1,12.483,2.962A5.358,5.358,0,0,1,46.494,28.1c9.373,27.283,8.74,25.451,8.781,25.546a2.149,2.149,0,0,1-1.105,2.824Z" transform="translate(0)" fill="#cf3d3d"/>
    <path id="Контур_1017" data-name="Контур 1017" d="M158.913,201.26a1.726,1.726,0,0,0-2.259.924l-8.4,20.024a1.726,1.726,0,1,0,3.183,1.336l8.4-20.024A1.726,1.726,0,0,0,158.913,201.26Z" transform="translate(-131.075 -162.967)" fill="#cf3d3d"/>
    <path id="Контур_1018" data-name="Контур 1018" d="M88,199.058c0-3.331-2.439-6.041-5.438-6.041s-5.438,2.71-5.438,6.041,2.439,6.041,5.438,6.041S88,202.388,88,199.058Zm-5.438,2.589c-1.077,0-1.986-1.186-1.986-2.589s.91-2.589,1.986-2.589,1.986,1.186,1.986,2.589S83.643,201.647,82.566,201.647Z" transform="translate(-68.254 -155.792)" fill="#cf3d3d"/>
    <path id="Контур_1019" data-name="Контур 1019" d="M233.923,312.011c-3,0-5.438,2.71-5.438,6.041s2.439,6.041,5.438,6.041,5.438-2.71,5.438-6.041S236.922,312.011,233.923,312.011Zm0,8.63c-1.077,0-1.986-1.186-1.986-2.589s.91-2.589,1.986-2.589,1.986,1.186,1.986,2.589S235,320.641,233.923,320.641Z" transform="translate(-202.197 -261.096)" fill="#cf3d3d"/>
  </g>
</svg>
