<svg xmlns="http://www.w3.org/2000/svg" width="52.494" height="54.669" viewBox="0 0 52.494 54.669">
  <g id="knives" transform="translate(-33.007 -31.7)">
    <path id="Вычитание_1" data-name="Вычитание 1" d="M6744.847,12690.765h0l-3-2.987-4.048-4.029-.793-.793,8.58-8.552,23.789-23.7a55.156,55.156,0,0,1-15.638,31.213l-8.892,8.851Zm10.147-20.726a.973.973,0,0,0-.691.285l-9.25,9.22a.977.977,0,0,0-.009,1.37.958.958,0,0,0,.688.289.992.992,0,0,0,.691-.289l9.262-9.218a.944.944,0,0,0,.287-.676.976.976,0,0,0-.978-.981Zm7.792-9.213a.962.962,0,0,0-.715.321l-2.605,2.934a.929.929,0,0,0-.237.686.96.96,0,0,0,.32.655.989.989,0,0,0,.637.236.922.922,0,0,0,.7-.319l2.608-2.937a.932.932,0,0,0,.237-.677.953.953,0,0,0-.32-.66A.935.935,0,0,0,6762.787,12660.826Z" transform="translate(-6685.633 -12619)" fill="#cf3d3d"/>
    <path id="Контур_1054" data-name="Контур 1054" d="M403.521,427.862l4.152-4.141-4.131-4.121-4.141,4.152Z" transform="translate(-328.647 -347.939)" fill="#e98080"/>
    <path id="Контур_1055" data-name="Контур 1055" d="M100.352,427.772l4.131-4.121-4.152-4.152-.361.361-3.77,3.76Z" transform="translate(-56.683 -347.849)" fill="#cf3d3d"/>
    <path id="Контур_1056" data-name="Контур 1056" d="M156.458,359.872l-1.782-1.772-4.976,4.955,4.152,4.152,4.986-4.966Z" transform="translate(-104.671 -292.775)" fill="#cf3d3d"/>
    <path id="Контур_1057" data-name="Контур 1057" d="M337.6,362.052l4.986,4.965,4.152-4.152-4.976-4.966Z" transform="translate(-273.214 -292.595)" fill="#e98080"/>
    <path id="Контур_1058" data-name="Контур 1058" d="M67.254,60.926l6.233-6.212L50.4,31.7A55.192,55.192,0,0,0,65.657,62.534Z" transform="translate(-15.601)" fill="#e98080"/>
    <rect id="Прямоугольник_417" data-name="Прямоугольник 417" width="7.211" height="5.841" transform="translate(80.377 77.141) rotate(44.725)" fill="#e98080"/>
    <rect id="Прямоугольник_418" data-name="Прямоугольник 418" width="7.211" height="5.841" transform="translate(42.232 81.245) rotate(134.725)" fill="#cf3d3d"/>
    <rect id="Прямоугольник_419" data-name="Прямоугольник 419" width="5.017" height="17.05" transform="matrix(0.684, 0.729, -0.729, 0.684, 70.037, 49.401)" fill="#cf3d3d"/>
  </g>
</svg>
