<svg xmlns="http://www.w3.org/2000/svg" width="55" height="55" viewBox="0 0 55 55">
  <path id="stop" d="M53.993,13.038,41.962,1.007A3.438,3.438,0,0,0,39.531,0H15.469a3.438,3.438,0,0,0-2.43,1.007L1.007,13.038A3.438,3.438,0,0,0,0,15.469V39.531a3.438,3.438,0,0,0,1.007,2.43L13.038,53.993A3.438,3.438,0,0,0,15.469,55H39.531a3.438,3.438,0,0,0,2.43-1.007L53.993,41.962A3.438,3.438,0,0,0,55,39.531V15.469A3.438,3.438,0,0,0,53.993,13.038ZM39.531,25.781V37.812c0,3.8-3.68,6.875-7.478,6.875h-5a8.593,8.593,0,0,1-7.687-4.751L18.3,37.812,13.918,27.579a2.075,2.075,0,0,1,.979-2.673,2.472,2.472,0,0,1,2.989.756l2.739,3.9V12.031a1.719,1.719,0,1,1,3.438,0V24.921a.859.859,0,0,0,1.719,0V8.593a1.719,1.719,0,1,1,3.438,0V24.921a.859.859,0,0,0,1.719,0V12.031a1.719,1.719,0,1,1,3.438,0V26.64a.859.859,0,0,0,1.719,0V17.187a1.719,1.719,0,1,1,3.438,0Z" fill="#cf3d3d"/>
</svg>
