<svg xmlns="http://www.w3.org/2000/svg" width="87.439" height="55" viewBox="0 0 87.439 55">
  <g id="Сгруппировать_176" data-name="Сгруппировать 176" transform="translate(-1369.174 -903.221)">
    <path id="Контур_965" data-name="Контур 965" d="M23.175,170.713c.271-.408.55-.809.847-1.2l.607-.8-.711-.415a16.086,16.086,0,0,0-8.1-2.169A15.634,15.634,0,0,0,0,181.54v4.734a1.615,1.615,0,0,0,1.637,1.588h17.7v-4.476c0-.516.023-1.061.072-1.716l.024-.315c.052-.587.125-1.162.213-1.706l.014-.075c.1-.588.224-1.182.378-1.8.146-.572.319-1.156.516-1.733l-.7-.23.739.107A23.07,23.07,0,0,1,22,172.684l.121-.228c.258-.475.535-.945.825-1.4Zm0,0" transform="translate(1369.174 766.375)" fill="#e98080"/>
    <path id="Контур_966" data-name="Контур 966" d="M50.646,67.71a8.147,8.147,0,1,0-8.365-8.143A8.266,8.266,0,0,0,50.646,67.71Zm0,0" transform="translate(1334.346 860.863)" fill="#e98080"/>
    <path id="Контур_967" data-name="Контур 967" d="M169.925,163.341c-.014-.221-.03-.443-.052-.662-.014-.147-.035-.293-.053-.44-.023-.2-.047-.393-.076-.586-.023-.151-.051-.3-.077-.452-.033-.189-.066-.379-.1-.567-.03-.146-.063-.291-.1-.437-.043-.191-.087-.384-.136-.573-.034-.136-.072-.271-.109-.4-.056-.2-.114-.4-.176-.6-.037-.119-.076-.238-.115-.357q-.106-.322-.222-.64c-.037-.1-.074-.2-.112-.3-.09-.232-.182-.462-.281-.691-.032-.076-.065-.152-.1-.229q-.167-.378-.348-.747l-.076-.154c-.134-.27-.275-.537-.421-.8l-.046-.085q-.242-.431-.5-.849l-.01-.016a22.132,22.132,0,0,0-35.43-2.54l-.09.106c-.184.218-.362.441-.537.666l-.118.154c-.158.207-.312.419-.462.631-.051.072-.1.144-.152.218-.13.19-.257.384-.382.578-.062.1-.125.194-.185.293-.1.165-.2.333-.3.5-.075.13-.152.259-.224.39s-.132.249-.2.375c-.092.176-.186.351-.273.53-.006.012-.011.024-.017.036a20.925,20.925,0,0,0-1.295,3.388c-.012.041-.024.082-.036.123-.068.246-.13.492-.189.74-.019.076-.037.153-.054.229-.052.227-.1.454-.143.681-.021.105-.039.211-.058.316-.036.207-.07.415-.1.623q-.03.208-.054.417c-.023.182-.045.364-.063.547s-.031.375-.045.563c-.01.142-.023.284-.03.426-.017.337-.027.676-.027,1.016v6.659a1.838,1.838,0,0,0,1.867,1.8h39.89a1.838,1.838,0,0,0,1.867-1.8v-6.658q0-.527-.028-1.048c-.006-.125-.019-.249-.027-.374Zm0,0" transform="translate(1265.093 784.998)" fill="#cf3d3d"/>
    <path id="Контур_968" data-name="Контур 968" d="M197.452,20.716A10.515,10.515,0,0,0,208.1,10.36a10.647,10.647,0,0,0-21.287,0A10.515,10.515,0,0,0,197.452,20.716Zm0,0" transform="translate(1215.297 903.217)" fill="#cf3d3d"/>
    <path id="Контур_969" data-name="Контур 969" d="M362.362,159.918a16.076,16.076,0,0,0-8.71,2.548l-.687.441.519.624a23.357,23.357,0,0,1,2.972,4.564l.036.074c.149.3.293.613.432.93l.052.118c.131.305.255.612.4.977l.027.068c.266.711.5,1.43.682,2.139l.043.176c.074.287.143.576.206.868l.075.375c.046.231.089.461.127.695.023.142.045.283.066.425.033.225.063.45.089.679.016.142.033.283.047.425.024.244.041.49.056.737l.025.37c.018.37.03.741.03,1.113v3.381h17.7a1.615,1.615,0,0,0,1.637-1.589v-4.734a15.635,15.635,0,0,0-15.819-15.405Zm0,0" transform="translate(1078.432 771.494)" fill="#e98080"/>
    <path id="Контур_970" data-name="Контур 970" d="M367.185,63.655a8.147,8.147,0,1,0-8.365-8.144A8.266,8.266,0,0,0,367.185,63.655Zm0,0" transform="translate(1073.609 864.203)" fill="#e98080"/>
  </g>
</svg>
