<?xml version="1.0" encoding="UTF-8" standalone="no"?>
<!-- FREEQN and headshot logo are registered trademarks of FRIKEN LLC -->
<!-- Use without explicit permission is forbidden -->
<svg
   xmlns:dc="http://purl.org/dc/elements/1.1/"
   xmlns:rdf="http://www.w3.org/1999/02/22-rdf-syntax-ns#"
   xmlns:svg="http://www.w3.org/2000/svg"
   xmlns="http://www.w3.org/2000/svg"
   height="171.74001"
   width="986.78003"
   xml:space="preserve"
   viewBox="0 0 986.78003 171.74001"
   y="0px"
   x="0px"
   id="Layer_1"
   version="1.1">
<style
   id="style2"
   type="text/css">
	.st0{fill:#ffffff;}
</style>
<path
   id="path4"
   d="m 46.259999,39.019995 v 35.98 H 118.46001 V 110.75001 H 46.259999 v 56.08 H 0 V 3.2699998 H 128.28001 V 39.019995 Z"
   class="st0" />
<path
   id="path6"
   d="m 222.11001,41.799995 h -23.47 v 43.73 h 23.47 c 17.49,0 26.24,-8.11 26.24,-21.76 0,-13.86 -8.74,-21.97 -26.24,-21.97 z m -0.6,81.570015 h -25.23 v 43.46 h -46.26 V 3.2699998 h 74.76 c 44.63,0 72.67,23.1299952 72.67,60.5199952 0,24.07 -11.68,41.830015 -32.01,51.640015 l 35.28,51.41 h -49.54 z"
   class="st0" />
<path
   id="path8"
   d="m 454.24001,131.08001 v 35.75 h -131.31 V 3.2699998 h 128.28 V 39.019995 h -82.48 v 27.57 h 72.67 v 34.579995 h -72.67 v 29.91002 z"
   class="st0" />
<path
   id="path10"
   d="m 611.27001,131.08001 v 35.75 h -131.32 V 3.2699998 h 128.28 V 39.019995 h -82.48 v 27.57 h 72.67 v 34.579995 h -72.67 v 29.91002 z"
   class="st0" />
<path
   id="path12"
   d="m 785.13001,171.74001 -17.99,-16.12 c -14.8,9.66 -31.39,14.49 -49.77,14.49 -25.08,0 -46,-8.22 -62.74,-24.65 -16.75,-16.43 -25.12,-36.57 -25.12,-60.400015 0,-23.68 8.45,-43.77 25.35,-60.29 C 671.76001,8.26 692.75001,0 717.84001,0 c 25.08,0 45.99,8.22 62.74,24.649995 16.74,16.44 25.12,36.57 25.12,60.4 0,17.600005 -4.83,33.260015 -14.49,46.970015 l 16.82,14.25 z m -67.3,-41.83 c 5.76,0 11.29,-1.01 16.59,-3.04 l -18.61,-15.34 22.9,-25.700015 18.14,16.039995 c 1.87,-4.979995 2.8,-10.439995 2.8,-16.359995 0,-12.3 -3.97,-22.82 -11.92,-31.55 -7.94,-8.72 -18.07,-13.09 -30.38,-13.09 -12.15,0 -22.08,4.36 -29.79,13.09 -7.71,8.73 -11.57,19.24 -11.57,31.55 0,12.15 3.93,22.590015 11.8,31.310015 7.88,8.73 17.89,13.09 30.04,13.09 z"
   class="st0" />
<path
   id="path14"
   d="M 986.78001,3.2699998 V 166.83001 h -38.09 l -72.2,-87.160015 v 87.160015 h -45.33 V 3.2699998 h 38.09 l 72.2,87.1599952 V 3.2699998 Z"
   class="st0" />
</svg>
